<?xml version="1.0" encoding="utf-8"?>
<!-- Generator: Adobe Illustrator 22.1.0, SVG Export Plug-In . SVG Version: 6.00 Build 0)  -->
<svg version="1.1" id="Layer_1" xmlns="http://www.w3.org/2000/svg" xmlns:xlink="http://www.w3.org/1999/xlink" x="0px" y="0px"
	 viewBox="0 0 443.4 436.1" style="enable-background:new 0 0 443.4 436.1;" xml:space="preserve">
<style type="text/css">
	.st0{fill:#4527A0;}
	.st1{fill:#689F38;}
	.st2{opacity:0.1;clip-path:url(#SVGID_2_);}
	.st3{opacity:0.1;clip-path:url(#SVGID_4_);}
	.st4{fill:#384949;}
	.st5{fill:#293939;}
	.st6{fill:#4A696F;}
	.st7{fill:#3E5959;}
	.st8{fill:#E63950;}
	.st9{fill:#FDBF00;}
	.st10{fill:#A8D32A;}
	.st11{fill:#93BF00;}
	.st12{fill:#FF9F00;}
	.st13{fill:#CC2E43;}
</style>
<g id="Layer_2_1_">
	<g>
		<path class="st0" d="M306.3,296.2L292,252l-0.1-0.3c-4.6-13-16.8-21.8-30.5-21.8H158.5c-13.7,0-25.9,8.8-30.5,21.8l-14.4,44.6
			c-5.1,2.2-9.8,5.4-13.8,9.5c-7.8,8-12,18.6-12,29.6v72.9c0,15.3,12.5,27.8,27.8,27.8c14.1,0,25.8-10.6,27.6-24.3H277
			c1.7,13.7,13.4,24.3,27.6,24.3c14.5,0,27.8-11.6,27.8-24.3v-77.1C332.3,317.3,321.5,302.4,306.3,296.2z M154.4,260.8
			c0.7-1.8,2.4-3.1,4.2-3.1h102.9c1.8,0,3.5,1.3,4.2,3.1l10.5,32.3H143.9L154.4,260.8z M304.5,370.2c0,7.7-6.2,13.9-13.9,13.9H129.5
			c-7.7,0-13.9-6.2-13.9-13.9v-34.7c0-7.9,6.4-14.6,13.9-14.6h161.1c7.7,0,13.9,6.2,13.9,13.9V370.2z"/>
		<rect x="178.8" y="338.2" class="st0" width="63.2" height="27.8"/>
		<circle class="st0" cx="273.3" cy="352.1" r="13.9"/>
		<circle class="st0" cx="147.6" cy="352.1" r="13.9"/>
	</g>
	<g>
		<circle class="st1" cx="384.4" cy="261.2" r="13.9"/>
		<path class="st1" d="M443.4,243.8v77.1c0,12.7-13.2,24.3-27.8,24.3c-14.1,0-25.8-10.6-27.6-24.3h-29.4
			c-2.1-10.3-6.4-19.7-12.5-27.8h55.6c7.7,0,13.9-6.2,13.9-13.9v-35.4c0-7.7-6.2-13.9-13.9-13.9H312c-10.9-17-29.8-27.8-50.5-27.8
			H387l-10.1-29.5c-0.6-1.8-2.4-3.1-4.2-3.1h-103c-1.8,0-3.6,1.3-4.2,3.2l-10.1,30.2H226l13.2-39.3c4.5-13,16.8-21.8,30.5-21.8
			h102.9c13.7,0,25.9,8.8,30.5,21.8l14.3,41.6C432.6,211.3,443.4,226.3,443.4,243.8z"/>
		<polygon class="st1" points="328.7,275 319.7,247.3 353.2,247.3 353.2,275 		"/>
	</g>
	<g>
		<g>
			<g>
				<defs>
					<rect id="SVGID_1_" x="210.4" y="221.9" width="144.7" height="213.8"/>
				</defs>
				<clipPath id="SVGID_2_">
					<use xlink:href="#SVGID_1_"  style="overflow:visible;"/>
				</clipPath>
				<g class="st2">
					<path d="M306.3,296.2L292,252l-0.1-0.3c-4.6-13-16.8-21.8-30.5-21.8H158.5c-13.7,0-25.9,8.8-30.5,21.8l-14.4,44.6
						c-5.1,2.2-9.8,5.4-13.8,9.5c-7.8,8-12,18.6-12,29.6v72.9c0,15.3,12.5,27.8,27.8,27.8c14.1,0,25.8-10.6,27.6-24.3H277
						c1.7,13.7,13.4,24.3,27.6,24.3c14.5,0,27.8-11.6,27.8-24.3v-77.1C332.3,317.3,321.5,302.4,306.3,296.2z M154.4,260.8
						c0.7-1.8,2.4-3.1,4.2-3.1h102.9c1.8,0,3.5,1.3,4.2,3.1l10.5,32.3H143.9L154.4,260.8z M304.5,370.2c0,7.7-6.2,13.9-13.9,13.9
						H129.5c-7.7,0-13.9-6.2-13.9-13.9v-34.7c0-7.9,6.4-14.6,13.9-14.6h161.1c7.7,0,13.9,6.2,13.9,13.9V370.2z"/>
					<rect x="178.8" y="338.2" width="63.2" height="27.8"/>
					<circle cx="273.3" cy="352.1" r="13.9"/>
					<circle cx="147.6" cy="352.1" r="13.9"/>
				</g>
			</g>
		</g>
	</g>
	<g>
		<g>
			<g>
				<defs>
					<rect id="SVGID_3_" x="332.3" y="136.6" width="111.1" height="213"/>
				</defs>
				<clipPath id="SVGID_4_">
					<use xlink:href="#SVGID_3_"  style="overflow:visible;"/>
				</clipPath>
				<g class="st3">
					<circle cx="384.4" cy="261.2" r="13.9"/>
					<path d="M443.4,243.8v77.1c0,12.7-13.2,24.3-27.8,24.3c-14.1,0-25.8-10.6-27.6-24.3h-29.4c-2.1-10.3-6.4-19.7-12.5-27.8h55.6
						c7.7,0,13.9-6.2,13.9-13.9v-35.4c0-7.7-6.2-13.9-13.9-13.9H312c-10.9-17-29.8-27.8-50.5-27.8H387l-10.1-29.5
						c-0.6-1.8-2.4-3.1-4.2-3.1h-103c-1.8,0-3.6,1.3-4.2,3.2l-10.1,30.2H226l13.2-39.3c4.5-13,16.8-21.8,30.5-21.8h102.9
						c13.7,0,25.9,8.8,30.5,21.8l14.3,41.6C432.6,211.3,443.4,226.3,443.4,243.8z"/>
					<polygon points="328.7,275 319.7,247.3 353.2,247.3 353.2,275 					"/>
				</g>
			</g>
		</g>
	</g>
</g>
<g id="Layer_1_1_">
	<path class="st4" d="M114.6,288.7H82.1c-4.6,0-8.1,10.6-8.1,24.3v98.8c0,13.6,3.6,24.3,8.1,24.3h32.5c4.6,0,8.1-10.7,8.1-24.3V313
		C122.8,299.3,119.2,288.7,114.6,288.7z"/>
	<path class="st5" d="M122.8,313v98.9c0,13.6-3.6,24.3-8.1,24.3H98.4V288.7h16.3C119.2,288.7,122.8,299.4,122.8,313z"/>
	<path class="st4" d="M44.7,86C20.1,86,0,67.7,0,45.2C0,40.6,4,37,8.9,37h35.8c4.9,0,8.9,3.7,8.9,8.2v32.7
		C53.7,82.3,49.7,86,44.7,86z"/>
	<path class="st4" d="M44.7,178.8C20.1,178.8,0,160.5,0,138c0-4.5,4-8.2,8.9-8.2h35.8c4.9,0,8.9,3.7,8.9,8.2v32.7
		C53.7,175.1,49.7,178.8,44.7,178.8z"/>
	<path class="st4" d="M44.7,270.3C20.1,270.3,0,252,0,229.5c0-4.5,4-8.2,8.9-8.2h35.8c4.9,0,8.9,3.7,8.9,8.2v32.7
		C53.7,266.7,49.7,270.3,44.7,270.3z"/>
	<path class="st5" d="M152.1,270.3c-4.9,0-8.9-3.7-8.9-8.2v-32.7c0-4.5,4-8.2,8.9-8.2h35.8c4.9,0,8.9,3.7,8.9,8.2
		C196.8,252,176.7,270.3,152.1,270.3z"/>
	<path class="st5" d="M152.1,178.8c-4.9,0-8.9-3.7-8.9-8.2V138c0-4.5,4-8.2,8.9-8.2h35.8c4.9,0,8.9,3.7,8.9,8.2
		C196.8,160.5,176.7,178.8,152.1,178.8z"/>
	<path class="st5" d="M152.1,86c-4.9,0-8.9-3.7-8.9-8.2V45.2c0-4.5,4-8.2,8.9-8.2h35.8c4.9,0,8.9,3.7,8.9,8.2
		C196.8,67.7,176.7,86,152.1,86z"/>
	<path class="st6" d="M134.2,0H62.6C47.8,0,35.8,13.8,35.8,30.8v247c0,17,12,30.8,26.8,30.8h71.6c14.8,0,26.8-13.8,26.8-30.8v-247
		C161,13.8,149,0,134.2,0z"/>
	<path class="st7" d="M161,30.8v247c0,17-12,30.8-26.8,30.8H98.4V0h35.8C149,0,161,13.8,161,30.8z"/>
	<path class="st8" d="M98.4,26.8c-19.2,0-34.7,15.5-34.7,34.7s15.5,34.7,34.7,34.7S133,80.7,133,61.5S117.6,26.8,98.4,26.8z"/>
	<path class="st9" d="M98.4,120c-19.2,0-34.7,15.5-34.7,34.7s15.5,34.7,34.7,34.7s34.7-15.5,34.7-34.7C133,135.5,117.6,120,98.4,120
		z"/>
	<path class="st10" d="M98.4,212.4c-19.2,0-34.7,15.5-34.7,34.7s15.5,34.7,34.7,34.7s34.7-15.5,34.7-34.7
		C133,227.9,117.6,212.4,98.4,212.4z"/>
	<path class="st11" d="M133,247.1c0,19.2-15.5,34.7-34.7,34.7v-69.3C117.6,212.4,133,227.9,133,247.1z"/>
	<path class="st12" d="M133,154.7c0,19.2-15.5,34.7-34.7,34.7V120C117.6,120,133,135.5,133,154.7z"/>
	<path class="st13" d="M98.4,96.1V26.8c19.2,0,34.7,15.5,34.7,34.7C133,80.7,117.6,96.1,98.4,96.1z"/>
</g>
</svg>
